<svg width="512" height="512" viewBox="0 0 512 512" fill="none" xmlns="http://www.w3.org/2000/svg">
<path d="M0 64C0 28.6538 28.6538 0 64 0H448C483.346 0 512 28.6538 512 64V448C512 483.346 483.346 512 448 512H64C28.6538 512 0 483.346 0 448V64Z" fill="white"/>
<path d="M196.032 160.352C198.912 160.352 203.136 160.352 208.704 160.352C214.464 160.352 221.088 160.448 228.576 160.64C236.064 160.832 243.84 161.12 251.904 161.504C259.968 161.888 267.744 162.464 275.232 163.232C282.912 163.808 289.632 164.672 295.392 165.824V323.936C295.392 328.928 296.64 332.672 299.136 335.168C301.824 337.472 305.76 338.624 310.944 338.624H321.6L326.208 365.696C324.096 366.848 320.928 367.808 316.704 368.576C312.672 369.536 308.448 370.208 304.032 370.592C299.616 371.168 295.968 371.456 293.088 371.456C280.608 371.456 270.816 368.192 263.712 361.664C256.608 355.136 253.056 346.112 253.056 334.592V190.304H211.296C204.192 190.112 199.2 191.648 196.32 194.912C193.632 197.984 192.288 203.552 192.288 211.616V368H149.376V206.144C149.376 196.928 150.816 188.864 153.696 181.952C156.768 175.04 161.664 169.76 168.384 166.112C175.296 162.272 184.512 160.352 196.032 160.352ZM228.288 225.728V253.664H125.184V227.168L150.24 225.728H228.288Z" fill="#094074"/>
<path d="M392 336C392 353.673 377.673 368 360 368C342.327 368 328 353.673 328 336C328 318.327 342.327 304 360 304C377.673 304 392 318.327 392 336Z" fill="#F39237"/>
</svg>
