<svg width="246" height="36" viewBox="0 0 246 36" fill="none" xmlns="http://www.w3.org/2000/svg">
<path d="M3.41868 35.4508V14.7051H0V10.3119H3.41868V6.22373C3.41868 4.02712 3.90707 2.44068 4.88383 1.46441C5.9013 0.488135 7.40715 0 9.40138 0H15.9946V4.82034H9.64557V10.3119H15.8114V14.7051H9.64557V35.4508H3.41868Z" fill="#094074"/>
<path d="M28.9555 36C26.1066 36 23.7461 35.4508 21.874 34.3525C20.0018 33.2542 18.5977 31.7492 17.6617 29.8373C16.7256 27.8847 16.2576 25.6678 16.2576 23.1864C16.2169 19.4441 17.2547 16.3729 19.371 13.9729C21.528 11.5322 24.7229 10.3119 28.9555 10.3119C33.0661 10.3119 36.1795 11.4915 38.2959 13.8508C40.4529 16.2102 41.5314 19.322 41.5314 23.1864C41.5314 25.5864 41.0837 27.7627 40.1883 29.7153C39.293 31.6678 37.9092 33.2136 36.0371 34.3525C34.165 35.4508 31.8044 36 28.9555 36ZM28.9555 30.7525C30.7463 30.7525 32.1097 30.3661 33.0457 29.5932C34.0225 28.8203 34.6737 27.8441 34.9993 26.6644C35.3249 25.4441 35.4877 24.2237 35.4877 23.0034C35.4877 21.7424 35.3249 20.5017 34.9993 19.2814C34.6737 18.061 34.0225 17.0644 33.0457 16.2915C32.1097 15.5186 30.7463 15.1322 28.9555 15.1322C27.1241 15.1322 25.72 15.539 24.7432 16.3525C23.8072 17.1254 23.156 18.122 22.7897 19.3424C22.4641 20.522 22.3013 21.7424 22.3013 23.0034C22.3013 24.2237 22.4641 25.4441 22.7897 26.6644C23.156 27.8441 23.8072 28.8203 24.7432 29.5932C25.72 30.3661 27.1241 30.7525 28.9555 30.7525Z" fill="#094074"/>
<path d="M56.0548 36C53.2059 36 50.8454 35.4508 48.9733 34.3525C47.1011 33.2542 45.697 31.7492 44.761 29.8373C43.8249 27.8847 43.3568 25.6678 43.3568 23.1864C43.3162 19.4441 44.354 16.3729 46.4703 13.9729C48.6273 11.5322 51.8222 10.3119 56.0548 10.3119C60.1654 10.3119 63.2788 11.4915 65.3952 13.8508C67.5522 16.2102 68.6307 19.322 68.6307 23.1864C68.6307 25.5864 68.183 27.7627 67.2876 29.7153C66.3923 31.6678 65.0085 33.2136 63.1364 34.3525C61.2642 35.4508 58.9037 36 56.0548 36ZM56.0548 30.7525C57.8456 30.7525 59.209 30.3661 60.145 29.5932C61.1218 28.8203 61.773 27.8441 62.0986 26.6644C62.4242 25.4441 62.5869 24.2237 62.5869 23.0034C62.5869 21.7424 62.4242 20.5017 62.0986 19.2814C61.773 18.061 61.1218 17.0644 60.145 16.2915C59.209 15.5186 57.8456 15.1322 56.0548 15.1322C54.2234 15.1322 52.8193 15.539 51.8425 16.3525C50.9064 17.1254 50.2553 18.122 49.889 19.3424C49.5634 20.522 49.4006 21.7424 49.4006 23.0034C49.4006 24.2237 49.5634 25.4441 49.889 26.6644C50.2553 27.8441 50.9064 28.8203 51.8425 29.5932C52.8193 30.3661 54.2234 30.7525 56.0548 30.7525Z" fill="#094074"/>
<path d="M81.9942 36C78.2499 36 75.5842 34.8407 73.9969 32.522C72.4097 30.1627 71.6161 27.0915 71.6161 23.3085C71.6161 19.3627 72.43 16.2102 74.058 13.8508C75.6859 11.4915 78.3313 10.3119 81.9942 10.3119C83.5814 10.3119 84.9041 10.5763 85.9623 11.1051C87.0612 11.5932 87.9158 12.1831 88.5263 12.8746C89.1775 13.5661 89.6455 14.1966 89.9304 14.7661C90.2153 15.3356 90.3781 15.6814 90.4188 15.8034H90.5409V1.03729H96.9509V35.3898H91.5787L90.5409 30.9356H90.4188C90.3781 31.0169 90.195 31.322 89.8694 31.8508C89.5845 32.3797 89.0961 32.9695 88.4042 33.6203C87.7531 34.2712 86.8984 34.8407 85.8402 35.3288C84.7821 35.7763 83.5 36 81.9942 36ZM84.0088 30.7525C86.3286 30.7525 87.9769 30.061 88.9537 28.678C89.9711 27.2542 90.4799 25.4441 90.4799 23.2475C90.4799 21.1322 89.9915 19.3831 89.0147 18C88.0786 16.5763 86.471 15.8644 84.1919 15.8644C82.5233 15.8644 81.2006 16.2305 80.2238 16.9627C79.2877 17.6542 78.6366 18.5695 78.2703 19.7085C77.904 20.8068 77.7208 21.9864 77.7208 23.2475C77.7208 24.5085 77.8836 25.7288 78.2092 26.9085C78.5755 28.0475 79.2063 28.9831 80.1017 29.7153C81.0378 30.4068 82.3401 30.7525 84.0088 30.7525Z" fill="#094074"/>
<path d="M101.109 35.3898V1.03729H107.213V35.3898H101.109Z" fill="#094074"/>
<path d="M119.332 36C115.873 36 113.41 34.8203 111.945 32.461C110.48 30.1017 109.748 27.0102 109.748 23.1864C109.748 19.322 110.48 16.2102 111.945 13.8508C113.451 11.4508 115.913 10.2508 119.332 10.2508C121.286 10.2508 122.832 10.5966 123.972 11.2881C125.111 11.939 125.966 12.6712 126.536 13.4847C127.106 14.2983 127.451 14.9085 127.574 15.3153H127.696V10.3119H134.106V35.3898H128.733L127.696 31.3017H127.574C127.451 31.6678 127.085 32.2373 126.475 33.0102C125.905 33.7424 125.03 34.4339 123.85 35.0847C122.71 35.6949 121.204 36 119.332 36ZM121.896 30.7525C124.175 30.7525 125.701 30.0407 126.475 28.6169C127.289 27.1525 127.696 25.3627 127.696 23.2475C127.696 21.0102 127.289 19.2 126.475 17.817C125.661 16.4339 124.135 15.7424 121.896 15.7424C120.309 15.7424 119.068 16.0881 118.172 16.7797C117.318 17.4712 116.707 18.3864 116.341 19.5254C116.015 20.6237 115.852 21.8644 115.852 23.2475C115.852 24.6305 116.015 25.8915 116.341 27.0305C116.707 28.1695 117.318 29.0847 118.172 29.7763C119.068 30.4271 120.309 30.7525 121.896 30.7525Z" fill="#094074"/>
<path d="M136.691 35.3898V10.4339H142.002L143.04 15.7424H143.162C143.203 15.6203 143.345 15.2949 143.589 14.7661C143.874 14.1966 144.322 13.5661 144.932 12.8746C145.584 12.1831 146.438 11.5932 147.496 11.1051C148.595 10.5763 149.959 10.3119 151.587 10.3119C153.825 10.3119 155.555 10.7593 156.776 11.6542C157.997 12.5492 158.872 13.6881 159.401 15.0712C159.93 16.4136 160.255 17.817 160.378 19.2814C160.5 20.7458 160.561 22.0678 160.561 23.2475V35.3898H154.456V23.1864C154.456 21.8441 154.334 20.6237 154.09 19.5254C153.845 18.3864 153.316 17.4915 152.502 16.8407C151.729 16.1492 150.569 15.8034 149.023 15.8034C147.395 15.8034 146.153 16.1695 145.299 16.9017C144.444 17.6339 143.854 18.5898 143.528 19.7695C143.203 20.9085 143.04 22.1288 143.04 23.4305V35.3898H136.691Z" fill="#094074"/>
<path d="M175.52 36C173.159 36 171.023 35.5322 169.11 34.5966C167.197 33.6203 165.671 32.1966 164.531 30.3254C163.392 28.4136 162.822 26.0949 162.822 23.3695C162.903 20.6441 163.494 18.3051 164.592 16.3525C165.732 14.4 167.238 12.8949 169.11 11.8373C171.023 10.7797 173.2 10.2508 175.642 10.2508C178.125 10.2508 180.241 10.739 181.991 11.7153C183.782 12.6508 185.166 13.8915 186.142 15.4373C187.119 16.9424 187.669 18.5085 187.791 20.1356H182.052C181.442 17.1254 179.366 15.6203 175.825 15.6203C173.627 15.6203 171.918 16.2915 170.697 17.6339C169.517 18.9763 168.927 20.7254 168.927 22.8814C168.927 25.2407 169.497 27.1322 170.636 28.5559C171.816 29.939 173.546 30.6305 175.825 30.6305C177.372 30.6305 178.715 30.2237 179.854 29.4102C181.035 28.5966 181.767 27.3966 182.052 25.8102H187.791C187.669 27.5593 187.099 29.2068 186.081 30.7525C185.105 32.2983 183.721 33.5593 181.93 34.5356C180.18 35.5119 178.043 36 175.52 36Z" fill="#094074"/>
<path d="M202.074 36C199.185 36 196.824 35.3898 194.993 34.1695C193.202 32.9085 191.859 31.322 190.963 29.4102C190.109 27.4576 189.661 25.4034 189.62 23.2475C189.58 20.7254 190.048 18.4881 191.024 16.5356C192.042 14.5424 193.466 12.9966 195.298 11.8983C197.17 10.7593 199.368 10.1898 201.891 10.1898C204.129 10.1898 206.124 10.678 207.874 11.6542C209.664 12.6305 211.089 14.0136 212.147 15.8034C213.205 17.5525 213.755 19.6271 213.795 22.0271C213.795 22.1085 213.795 22.3322 213.795 22.6983C213.795 23.0644 213.795 23.3695 213.795 23.6136H195.542C195.542 25.9322 196.112 27.722 197.251 28.9831C198.391 30.2034 199.958 30.8136 201.952 30.8136C203.499 30.8136 204.781 30.4271 205.798 29.6542C206.856 28.8814 207.487 27.8644 207.691 26.6034H213.734C213.449 29.2475 212.31 31.4847 210.316 33.3153C208.321 35.1051 205.574 36 202.074 36ZM195.725 20.8068H207.568C207.528 20.522 207.426 20.0746 207.263 19.4644C207.141 18.8542 206.877 18.2237 206.47 17.5729C206.103 16.922 205.534 16.3729 204.76 15.9254C203.987 15.478 202.99 15.2542 201.769 15.2542C200.141 15.2542 198.9 15.6 198.045 16.2915C197.231 16.9424 196.641 17.7153 196.275 18.6102C195.949 19.4644 195.766 20.1966 195.725 20.8068Z" fill="#094074"/>
<path d="M217.161 35.3898V10.3119H222.961L223.388 17.2678C223.632 16.2102 224.1 15.1525 224.792 14.0949C225.525 12.9966 226.522 12.1017 227.784 11.4102C229.086 10.678 230.755 10.3119 232.79 10.3119H233.705V17.2678H232.79C229.289 17.2678 226.848 17.8373 225.464 18.9763C224.08 20.0746 223.388 21.9458 223.388 24.5898V35.3898H217.161Z" fill="#094074"/>
<path d="M240.488 35.3898C238.576 35.3898 237.294 34.922 236.642 33.9864C235.991 33.0508 235.666 31.9322 235.666 30.6305C235.666 29.3695 235.991 28.2915 236.642 27.3966C237.334 26.5017 238.616 26.0542 240.488 26.0542C242.32 26.0542 243.561 26.5017 244.212 27.3966C244.864 28.2915 245.189 29.3695 245.189 30.6305C245.189 31.9729 244.864 33.1119 244.212 34.0475C243.561 34.9424 242.32 35.3898 240.488 35.3898Z" fill="#F39237"/>
</svg>
